#!OML:ASF F:\VICON\USERDATA\INSTALL\rory3\rory3.ASF
:FULLY-SPECIFIED
:DEGREES
234
root 1.27027 17.9856 12.8201 -4.52379 -2.93699 0.174242
lowerback 10.6449 1.46087 0.299423
upperback 0.952999 1.99373 0.347158
thorax -4.97535 0.980018 -0.100289
lowerneck -16.6925 -2.32265 -1.97256
upperneck 19.5396 -2.81649 0.543212
head 8.91302 -1.40963 0.159765
rclavicle 1.43436e-014 1.55052e-014
rhumerus -27.6783 -19.218 -79.8016
rradius 26.5622
rwrist 6.59522
rhand -17.3166 22.9071
rfingers 7.12502
rthumb 8.92981 -6.88388
lclavicle 1.43436e-014 1.55052e-014
lhumerus -38.6317 6.36402 79.6954
lradius 21.7194
lwrist 2.64365
lhand -28.1239 22.1173
lfingers 7.12502
lthumb -1.50558 52.0917
rfemur -16.8624 -4.48032 21.7894
rtibia 77.2757
rfoot 0.972548 -9.37251
rtoes 13.7267
lfemur -9.66299 -3.32039 -24.1324
ltibia 27.663
lfoot -9.49088 -7.92089
ltoes 24.5263
235
root 1.2762 17.981 12.9899 -4.49281 -2.82206 0.479169
lowerback 10.6689 1.34971 -0.0923731
upperback 0.907771 1.79799 0.309565
thorax -5.04731 0.891211 0.108372
lowerneck -16.5379 -2.22289 -1.86959
upperneck 19.6176 -2.69542 0.478878
head 8.90752 -1.35291 0.13741
rclavicle -4.91371e-015 4.17448e-015
rhumerus -28.0637 -19.3382 -79.7598
rradius 26.6394
rwrist 6.37293
rhand -17.2883 23.71
rfingers 7.12502
rthumb 8.95715 -6.07981
lclavicle -4.91371e-015 4.17448e-015
lhumerus -38.1318 5.90447 79.8524
lradius 21.8931
lwrist 3.24183
lhand -28.1388 21.2601
lfingers 7.12502
lthumb -1.51995 51.2344
rfemur -18.3114 -4.72594 21.5368
rtibia 77.3223
rfoot 1.38084 -8.93018
rtoes 16.6936
lfemur -8.90291 -3.20888 -24.6124
ltibia 27.5023
lfoot -10.2478 -7.75101
ltoes 21.282
236
root 1.27817 17.97 13.1698 -4.54279 -2.7128 0.929683
lowerback 10.5418 1.27216 -0.624439
upperback 0.960996 1.62921 0.246092
thorax -4.93289 0.818629 0.37017
lowerneck -16.3532 -2.19157 -2.08032
upperneck 19.5902 -2.65407 0.714777
head 8.87075 -1.32445 0.259616
rclavicle -2.31522e-014 -1.21259e-014
rhumerus -28.3315 -19.2947 -79.7375
rradius 26.6016
rwrist 6.09117
rhand -17.451 23.8214
rfingers 7.12502
rthumb 8.80018 -5.9751
lclavicle -2.31522e-014 -1.21259e-014
lhumerus -37.5414 5.15641 80.1926
lradius 22.0607
lwrist 4.5541
lhand -28.4609 19.9766
lfingers 7.12502
lthumb -1.83107 49.9485
rfemur -19.5911 -4.9063 21.1386
rtibia 77.2243
rfoot -0.0113389 -7.95602
rtoes 15.018
lfemur -7.99808 -2.73868 -25.293
ltibia 27.414
lfoot -11.6015 -7.36087
ltoes 14.7209
237
root 1.27743 17.9679 13.3426 -4.5048 -2.55462 1.1607
lowerback 10.4088 1.16279 -0.925425
upperback 1.03146 1.44879 0.219567
thorax -4.78942 0.735042 0.541865
lowerneck -16.2107 -2.22179 -2.22733
upperneck 19.4826 -2.69264 0.859008
head 8.81301 -1.33862 0.32998
rclavicle 9.59757e-015 -2.78299e-015
rhumerus -28.4617 -19.1783 -79.816
rradius 26.6341
rwrist 5.77417
rhand -17.4238 23.1053
rfingers 7.12502
rthumb 8.82639 -6.69015
lclavicle 9.59757e-015 -2.78299e-015
lhumerus -36.9879 4.39338 80.4711
lradius 22.4708
lwrist 5.62953
lhand -28.5982 19.1378
lfingers 7.12502
lthumb -1.96364 49.1086
rfemur -20.9167 -5.02235 21.045
rtibia 76.8807
rfoot -1.35558 -7.13392
rtoes 13.0898
lfemur -7.41845 -2.51654 -25.6728
ltibia 27.4843
lfoot -12.3895 -7.05145
ltoes 11.6457
238
root 1.27981 17.9676 13.5078 -4.46736 -2.57436 1.04218
lowerback 10.5026 1.09259 -0.873227
upperback 1.03254 1.36422 0.290427
thorax -4.83962 0.692989 0.59682
lowerneck -16.1513 -2.17803 -2.04262
upperneck 19.4255 -2.63719 0.663655
head 8.77616 -1.32028 0.241004
rclavicle -1.44864e-014 1.78906e-015
rhumerus -28.7331 -19.0674 -79.8262
rradius 26.8883
rwrist 5.44963
rhand -17.4021 22.4905
rfingers 7.12502
rthumb 8.84732 -7.30401
lclavicle -1.44864e-014 1.78906e-015
lhumerus -36.6207 4.05108 80.4665
lradius 23.3656
lwrist 5.08684
lhand -27.6 21.8769
lfingers 7.12502
lthumb -0.999572 51.8543
rfemur -22.1548 -4.9115 21.3721
rtibia 76.3269
rfoot -2.67004 -6.47316
rtoes 12.4794
lfemur -6.99555 -2.2967 -25.6147
ltibia 27.7148
lfoot -12.8469 -6.92539
ltoes 10.924
239
root 1.2797 17.9483 13.6747 -4.42551 -2.61316 0.753704
lowerback 10.5352 1.02475 -0.651967
upperback 1.05115 1.30505 0.397862
thorax -4.8348 0.660272 0.592479
lowerneck -16.3268 -2.09754 -1.81852
upperneck 19.5342 -2.54277 0.49194
head 8.83812 -1.27721 0.155099
rclavicle 3.86388e-015 -6.16232e-015
rhumerus -28.9849 -18.8695 -79.8805
rradius 27.0877
rwrist 5.03228
rhand -17.2755 22.1849
rfingers 7.12502
rthumb 8.9695 -7.6044
lclavicle 3.86388e-015 -6.16232e-015
lhumerus -36.1439 4.96294 79.367
lradius 25.0552
lwrist -1.78519
lhand -15.3467 31.5392
lfingers 7.12502
lthumb 10.8304 61.24
rfemur -23.3183 -4.73519 21.9101
rtibia 75.6643
rfoot -4.06763 -6.13026
rtoes 11.4404
lfemur -6.5136 -2.14749 -25.3696
ltibia 28.0378
lfoot -13.5068 -6.60781
ltoes 9.42474
240
root 1.28026 17.9224 13.8374 -4.30821 -2.416 0.819918
lowerback 10.5782 0.903262 -0.745876
upperback 0.978458 1.13197 0.386931
thorax -4.93361 0.577161 0.657953
lowerneck -16.0881 -2.08801 -1.81142
upperneck 19.3421 -2.54107 0.519317
head 8.72938 -1.27392 0.166842
rclavicle 1.71452e-015 8.94531e-015
rhumerus -29.3203 -18.4595 -79.9822
rradius 27.2142
rwrist 4.4032
rhand -17.3027 22.3081
rfingers 7.12502
rthumb 8.94323 -7.48233
lclavicle 1.71452e-015 8.94531e-015
lhumerus -35.8348 2.32381 80.8201
lradius 24.5711
lwrist 6.99708
lhand -28.1337 19.4634
lfingers 7.12502
lthumb -1.51505 49.4378
rfemur -24.5899 -4.84388 21.992
rtibia 74.9054
rfoot -5.44589 -5.76449
rtoes 8.96131
lfemur -6.12924 -2.11968 -25.514
ltibia 28.3403
lfoot -14.2178 -6.59944
ltoes 9.35545
241
root 1.28464 17.8949 14.0053 -4.26315 -2.14275 1.24105
lowerback 10.7591 0.776376 -1.17419
upperback 0.856499 0.906341 0.30492
thorax -5.16374 0.475633 0.844034
lowerneck -15.6271 -2.08086 -2.0689
upperneck 19.1169 -2.53256 0.784838
head 8.57669 -1.26249 0.305645
rclavicle 9.11303e-015 3.37934e-015
rhumerus -29.6982 -18.3816 -79.8846
rradius 27.1804
rwrist 4.39733
rhand -17.3233 22.5692
rfingers 7.12502
rthumb 8.92339 -7.22211
lclavicle 9.11303e-015 3.37934e-015
lhumerus -35.3254 2.08136 80.675
lradius 25.5457
lwrist 5.50112
lhand -25.4905 28.4007
lfingers 7.12502
lthumb 1.03783 58.378
rfemur -25.7478 -5.02392 21.6022
rtibia 74.0326
rfoot -6.55139 -5.22612
rtoes 7.13867
lfemur -5.64641 -2.14191 -26.1138
ltibia 28.5365
lfoot -15.0609 -6.44585
ltoes 8.19361
242
root 1.28494 17.8775 14.1779 -4.32436 -2.04465 1.40135
lowerback 10.9163 0.678835 -1.38289
upperback 0.878042 0.750223 0.319486
thorax -5.22807 0.403728 0.999189
lowerneck -15.7696 -2.07088 -2.35205
upperneck 19.3152 -2.50305 1.04252
head 8.67698 -1.24155 0.440812
rclavicle -4.14963e-015 4.57205e-015
rhumerus -29.8067 -18.231 -79.8599
rradius 27.0085
rwrist 4.33224
rhand -17.4126 22.7836
rfingers 7.12502
rthumb 8.83721 -7.01134
lclavicle -4.14963e-015 4.57205e-015
lhumerus -34.8554 1.70143 80.7396
lradius 26.0057
lwrist 7.01089
lhand -26.3775 26.7424
lfingers 7.12502
lthumb 0.181116 56.722
rfemur -26.6669 -4.97052 21.5126
rtibia 72.9171
rfoot -7.8384 -4.79004
rtoes 4.88454
lfemur -4.96022 -1.89997 -26.4015
ltibia 28.5542
lfoot -15.718 -6.16887
ltoes 7.01921
243
root 1.28492 17.867 14.3496 -4.30021 -1.96492 1.52092
lowerback 10.8058 0.585654 -1.57526
upperback 0.980987 0.606204 0.334692
thorax -5.05648 0.335313 1.14671
lowerneck -15.9885 -2.04172 -2.32697
upperneck 19.425 -2.45387 0.992873
head 8.7522 -1.22099 0.423509
rclavicle -1.36789e-014 -1.13307e-014
rhumerus -29.8091 -17.9538 -79.9883
rradius 27.0205
rwrist 4.2117
rhand -17.3711 21.9553
rfingers 7.12502
rthumb 8.87728 -7.83799
lclavicle -1.36789e-014 -1.13307e-014
lhumerus -34.288 1.39665 80.6966
lradius 26.6238
lwrist 7.66222
lhand -26.3319 27.2587
lfingers 7.12502
lthumb 0.225169 57.2383
rfemur -27.5646 -4.8186 21.4831
rtibia 71.5736
rfoot -9.36265 -4.62294
rtoes 2.01978
lfemur -4.28161 -1.72078 -26.6142
ltibia 28.4817
lfoot -16.0215 -5.96691
ltoes 8.08438
